<!--
  El Plantío 360 - Tarjeta visual de jugador.
  Autor: Marcos Zamorano Lasso
  Práctica 3 - Sistemas Distribuidos
-->
<svg xmlns="http://www.w3.org/2000/svg" viewBox="0 0 600 760" role="img" aria-label="Ficha visual de Aitor Buñuel">
  <defs>
    <linearGradient id="bg" x1="0" y1="0" x2="1" y2="1">
      <stop offset="0" stop-color="#0b1110"/>
      <stop offset="1" stop-color="#1f2933"/>
    </linearGradient>
    <radialGradient id="glow" cx="50%" cy="18%" r="65%">
      <stop offset="0" stop-color="#ffffff" stop-opacity="0.32"/>
      <stop offset="1" stop-color="#ffffff" stop-opacity="0"/>
    </radialGradient>
    <filter id="shadow" x="-20%" y="-20%" width="140%" height="140%">
      <feDropShadow dx="0" dy="18" stdDeviation="18" flood-color="#000" flood-opacity="0.30"/>
    </filter>
  </defs>
  <rect width="600" height="760" rx="48" fill="url(#bg)"/>
  <rect width="600" height="760" rx="48" fill="url(#glow)"/>
  <g opacity="0.11" fill="none" stroke="#ffffff" stroke-width="2">
    <path d="M70 130h460M70 230h460M70 330h460M70 430h460M70 530h460"/>
    <path d="M130 80v610M250 80v610M370 80v610M490 80v610"/>
  </g>
  <text x="50" y="135" fill="#2f8b3f" font-family="Inter,Arial,sans-serif" font-size="72" font-weight="1000">#15</text>
  <g filter="url(#shadow)">
    <path d="M300 170 L430 230 L410 470 Q300 610 190 470 L170 230 Z" fill="#fff" opacity="0.96"/>
    <path d="M300 195 L397 240 L380 450 Q300 558 220 450 L203 240 Z" fill="#0b1110"/>
    <path d="M300 205 L385 245 L371 430 Q335 500 300 540 Z" fill="#fff"/>
    <path d="M300 205 L215 245 L229 430 Q265 500 300 540 Z" fill="#0b1110"/>
    <circle cx="300" cy="408" r="44" fill="#8b5a2b"/>
    <path d="M260 405q42-36 83-8M274 440q28-54 76-47M301 452q44-31 30-79" fill="none" stroke="#0b1110" stroke-width="10" stroke-linecap="round"/>
  </g>
  <circle cx="300" cy="310" r="92" fill="#2f8b3f" opacity="0.98" filter="url(#shadow)"/>
  <text x="300" y="340" text-anchor="middle" fill="#fff" font-family="Inter,Arial,sans-serif" font-size="70" font-weight="1000">AB</text>
  <text x="300" y="635" text-anchor="middle" fill="#ffffff" font-family="Inter,Arial,sans-serif" font-size="38" font-weight="1000">Aitor Buñuel</text>
  <text x="300" y="680" text-anchor="middle" fill="#ffffff" opacity="0.78" font-family="Inter,Arial,sans-serif" font-size="24" font-weight="800">Defensa</text>
</svg>
